<mxfile host="app.diagrams.net" agent="Mozilla/5.0 (Windows NT 10.0; Win64; x64) AppleWebKit/537.36 (KHTML, like Gecko) Chrome/129.0.0.0 Safari/537.36" version="24.7.16">
  <diagram name="Page-1" id="GRARfG3Dt2dTOWkbEPLx">
    <mxGraphModel dx="2049" dy="1103" grid="1" gridSize="10" guides="1" tooltips="1" connect="1" arrows="1" fold="1" page="1" pageScale="1" pageWidth="850" pageHeight="1100" math="0" shadow="0">
      <root>
        <mxCell id="0" />
        <mxCell id="1" parent="0" />
        <mxCell id="vIYdl2_f384WNNq0tSkq-1" value="&lt;font style=&quot;font-size: 15px;&quot;&gt;&lt;b&gt;Start&lt;/b&gt;&lt;/font&gt;" style="rounded=1;whiteSpace=wrap;html=1;" parent="1" vertex="1">
          <mxGeometry x="350" y="70" width="120" height="60" as="geometry" />
        </mxCell>
        <mxCell id="vIYdl2_f384WNNq0tSkq-2" value="" style="endArrow=classic;html=1;rounded=0;" parent="1" target="vIYdl2_f384WNNq0tSkq-3" edge="1">
          <mxGeometry width="50" height="50" relative="1" as="geometry">
            <mxPoint x="409.5" y="130" as="sourcePoint" />
            <mxPoint x="409.5" y="190" as="targetPoint" />
          </mxGeometry>
        </mxCell>
        <mxCell id="vIYdl2_f384WNNq0tSkq-5" value="" style="edgeStyle=orthogonalEdgeStyle;rounded=0;orthogonalLoop=1;jettySize=auto;html=1;" parent="1" source="vIYdl2_f384WNNq0tSkq-3" target="vIYdl2_f384WNNq0tSkq-4" edge="1">
          <mxGeometry relative="1" as="geometry" />
        </mxCell>
        <mxCell id="vIYdl2_f384WNNq0tSkq-3" value="&lt;font style=&quot;font-size: 13px;&quot;&gt;Enter a,b and c&lt;/font&gt;" style="shape=parallelogram;perimeter=parallelogramPerimeter;whiteSpace=wrap;html=1;fixedSize=1;" parent="1" vertex="1">
          <mxGeometry x="350" y="200" width="120" height="60" as="geometry" />
        </mxCell>
        <mxCell id="vIYdl2_f384WNNq0tSkq-7" value="" style="edgeStyle=orthogonalEdgeStyle;rounded=0;orthogonalLoop=1;jettySize=auto;html=1;" parent="1" source="vIYdl2_f384WNNq0tSkq-4" target="vIYdl2_f384WNNq0tSkq-6" edge="1">
          <mxGeometry relative="1" as="geometry" />
        </mxCell>
        <mxCell id="vIYdl2_f384WNNq0tSkq-30" value="&lt;span style=&quot;font-size: 13px;&quot;&gt;No&lt;/span&gt;" style="edgeLabel;html=1;align=center;verticalAlign=middle;resizable=0;points=[];" parent="vIYdl2_f384WNNq0tSkq-7" vertex="1" connectable="0">
          <mxGeometry x="-0.45" y="-2" relative="1" as="geometry">
            <mxPoint as="offset" />
          </mxGeometry>
        </mxCell>
        <mxCell id="vIYdl2_f384WNNq0tSkq-9" value="" style="edgeStyle=orthogonalEdgeStyle;rounded=0;orthogonalLoop=1;jettySize=auto;html=1;" parent="1" source="vIYdl2_f384WNNq0tSkq-4" target="vIYdl2_f384WNNq0tSkq-8" edge="1">
          <mxGeometry relative="1" as="geometry" />
        </mxCell>
        <mxCell id="vIYdl2_f384WNNq0tSkq-31" value="&lt;font style=&quot;font-size: 13px;&quot;&gt;Yes&lt;/font&gt;" style="edgeLabel;html=1;align=center;verticalAlign=middle;resizable=0;points=[];" parent="vIYdl2_f384WNNq0tSkq-9" vertex="1" connectable="0">
          <mxGeometry x="-0.4385" y="2" relative="1" as="geometry">
            <mxPoint as="offset" />
          </mxGeometry>
        </mxCell>
        <mxCell id="vIYdl2_f384WNNq0tSkq-4" value="&lt;div style=&quot;&quot;&gt;&lt;b style=&quot;background-color: initial; font-size: 17px;&quot;&gt;a&amp;gt;b&lt;/b&gt;&lt;br&gt;&lt;/div&gt;" style="rhombus;whiteSpace=wrap;html=1;align=center;" parent="1" vertex="1">
          <mxGeometry x="370" y="330" width="80" height="80" as="geometry" />
        </mxCell>
        <mxCell id="vIYdl2_f384WNNq0tSkq-11" value="" style="edgeStyle=orthogonalEdgeStyle;rounded=0;orthogonalLoop=1;jettySize=auto;html=1;" parent="1" source="vIYdl2_f384WNNq0tSkq-6" target="vIYdl2_f384WNNq0tSkq-10" edge="1">
          <mxGeometry relative="1" as="geometry" />
        </mxCell>
        <mxCell id="me5mVLHEnFjSLT_M4RTu-6" value="Yes" style="edgeLabel;html=1;align=center;verticalAlign=middle;resizable=0;points=[];" vertex="1" connectable="0" parent="vIYdl2_f384WNNq0tSkq-11">
          <mxGeometry x="-0.3365" y="1" relative="1" as="geometry">
            <mxPoint as="offset" />
          </mxGeometry>
        </mxCell>
        <mxCell id="vIYdl2_f384WNNq0tSkq-6" value="&lt;font style=&quot;font-size: 14px;&quot;&gt;b&amp;gt;c&lt;/font&gt;" style="rhombus;whiteSpace=wrap;html=1;" parent="1" vertex="1">
          <mxGeometry x="190" y="470" width="80" height="80" as="geometry" />
        </mxCell>
        <mxCell id="vIYdl2_f384WNNq0tSkq-15" value="" style="edgeStyle=orthogonalEdgeStyle;rounded=0;orthogonalLoop=1;jettySize=auto;html=1;" parent="1" source="vIYdl2_f384WNNq0tSkq-8" target="vIYdl2_f384WNNq0tSkq-14" edge="1">
          <mxGeometry relative="1" as="geometry" />
        </mxCell>
        <mxCell id="me5mVLHEnFjSLT_M4RTu-4" value="yes" style="edgeLabel;html=1;align=center;verticalAlign=middle;resizable=0;points=[];" vertex="1" connectable="0" parent="vIYdl2_f384WNNq0tSkq-15">
          <mxGeometry x="-0.0825" y="-2" relative="1" as="geometry">
            <mxPoint as="offset" />
          </mxGeometry>
        </mxCell>
        <mxCell id="vIYdl2_f384WNNq0tSkq-8" value="&lt;font style=&quot;font-size: 15px;&quot;&gt;a&amp;gt;c&lt;/font&gt;" style="rhombus;whiteSpace=wrap;html=1;" parent="1" vertex="1">
          <mxGeometry x="570" y="470" width="80" height="80" as="geometry" />
        </mxCell>
        <mxCell id="vIYdl2_f384WNNq0tSkq-10" value="&lt;font style=&quot;font-size: 15px;&quot;&gt;B is bigger&lt;/font&gt;" style="shape=parallelogram;perimeter=parallelogramPerimeter;whiteSpace=wrap;html=1;fixedSize=1;" parent="1" vertex="1">
          <mxGeometry x="170" y="640" width="120" height="60" as="geometry" />
        </mxCell>
        <mxCell id="vIYdl2_f384WNNq0tSkq-17" value="" style="edgeStyle=orthogonalEdgeStyle;rounded=0;orthogonalLoop=1;jettySize=auto;html=1;" parent="1" source="vIYdl2_f384WNNq0tSkq-12" target="vIYdl2_f384WNNq0tSkq-16" edge="1">
          <mxGeometry relative="1" as="geometry" />
        </mxCell>
        <mxCell id="vIYdl2_f384WNNq0tSkq-12" value="&lt;font style=&quot;font-size: 14px;&quot;&gt;C is bigger&lt;/font&gt;" style="shape=parallelogram;perimeter=parallelogramPerimeter;whiteSpace=wrap;html=1;fixedSize=1;" parent="1" vertex="1">
          <mxGeometry x="350" y="640" width="120" height="60" as="geometry" />
        </mxCell>
        <mxCell id="vIYdl2_f384WNNq0tSkq-14" value="&lt;font style=&quot;font-size: 16px;&quot;&gt;A is bigger&lt;/font&gt;" style="shape=parallelogram;perimeter=parallelogramPerimeter;whiteSpace=wrap;html=1;fixedSize=1;" parent="1" vertex="1">
          <mxGeometry x="550" y="640" width="120" height="60" as="geometry" />
        </mxCell>
        <mxCell id="vIYdl2_f384WNNq0tSkq-16" value="&lt;b&gt;&lt;font style=&quot;font-size: 16px;&quot;&gt;Stop&lt;/font&gt;&lt;/b&gt;" style="rounded=1;whiteSpace=wrap;html=1;" parent="1" vertex="1">
          <mxGeometry x="350" y="780" width="120" height="60" as="geometry" />
        </mxCell>
        <mxCell id="vIYdl2_f384WNNq0tSkq-20" value="" style="endArrow=classic;html=1;rounded=0;exitX=0.5;exitY=1;exitDx=0;exitDy=0;entryX=0;entryY=0.5;entryDx=0;entryDy=0;" parent="1" source="vIYdl2_f384WNNq0tSkq-10" target="vIYdl2_f384WNNq0tSkq-16" edge="1">
          <mxGeometry width="50" height="50" relative="1" as="geometry">
            <mxPoint x="220" y="800" as="sourcePoint" />
            <mxPoint x="270" y="750" as="targetPoint" />
            <Array as="points">
              <mxPoint x="230" y="810" />
            </Array>
          </mxGeometry>
        </mxCell>
        <mxCell id="vIYdl2_f384WNNq0tSkq-22" value="" style="endArrow=classic;html=1;rounded=0;exitX=0.5;exitY=1;exitDx=0;exitDy=0;entryX=1;entryY=0.5;entryDx=0;entryDy=0;" parent="1" source="vIYdl2_f384WNNq0tSkq-14" target="vIYdl2_f384WNNq0tSkq-16" edge="1">
          <mxGeometry width="50" height="50" relative="1" as="geometry">
            <mxPoint x="560" y="810" as="sourcePoint" />
            <mxPoint x="610" y="760" as="targetPoint" />
            <Array as="points">
              <mxPoint x="610" y="810" />
            </Array>
          </mxGeometry>
        </mxCell>
        <mxCell id="me5mVLHEnFjSLT_M4RTu-1" value="" style="endArrow=classic;html=1;rounded=0;exitX=1;exitY=0.5;exitDx=0;exitDy=0;entryX=0.5;entryY=0;entryDx=0;entryDy=0;" edge="1" parent="1" source="vIYdl2_f384WNNq0tSkq-6" target="vIYdl2_f384WNNq0tSkq-12">
          <mxGeometry width="50" height="50" relative="1" as="geometry">
            <mxPoint x="400" y="590" as="sourcePoint" />
            <mxPoint x="450" y="540" as="targetPoint" />
            <Array as="points">
              <mxPoint x="410" y="510" />
            </Array>
          </mxGeometry>
        </mxCell>
        <mxCell id="me5mVLHEnFjSLT_M4RTu-5" value="no" style="edgeLabel;html=1;align=center;verticalAlign=middle;resizable=0;points=[];" vertex="1" connectable="0" parent="me5mVLHEnFjSLT_M4RTu-1">
          <mxGeometry x="-0.4635" y="-4" relative="1" as="geometry">
            <mxPoint as="offset" />
          </mxGeometry>
        </mxCell>
        <mxCell id="me5mVLHEnFjSLT_M4RTu-2" value="" style="endArrow=classic;html=1;rounded=0;entryX=0.667;entryY=0;entryDx=0;entryDy=0;entryPerimeter=0;exitX=0;exitY=0.5;exitDx=0;exitDy=0;" edge="1" parent="1" source="vIYdl2_f384WNNq0tSkq-8" target="vIYdl2_f384WNNq0tSkq-12">
          <mxGeometry width="50" height="50" relative="1" as="geometry">
            <mxPoint x="440" y="530" as="sourcePoint" />
            <mxPoint x="490" y="480" as="targetPoint" />
            <Array as="points">
              <mxPoint x="430" y="510" />
            </Array>
          </mxGeometry>
        </mxCell>
        <mxCell id="me5mVLHEnFjSLT_M4RTu-3" value="No" style="edgeLabel;html=1;align=center;verticalAlign=middle;resizable=0;points=[];" vertex="1" connectable="0" parent="me5mVLHEnFjSLT_M4RTu-2">
          <mxGeometry x="-0.4677" relative="1" as="geometry">
            <mxPoint as="offset" />
          </mxGeometry>
        </mxCell>
      </root>
    </mxGraphModel>
  </diagram>
</mxfile>
